<svg xmlns="http://www.w3.org/2000/svg" viewBox="0 0 32 32">
  <path fill="#ffffff" d="M16.001 3.2c-7.064 0-12.8 5.736-12.8 12.8 0 2.256.592 4.448 1.72 6.392L3.2 28.8l6.56-1.68A12.74 12.74 0 0 0 16 28.8c7.064 0 12.8-5.736 12.8-12.8S23.064 3.2 16 3.2Zm0 23.2c-2.048 0-4.048-.536-5.832-1.56l-.416-.24-3.904 1.008 1.04-3.808-.256-.4A10.564 10.564 0 0 1 5.6 16c0-5.68 4.624-10.4 10.4-10.4 5.68 0 10.4 4.624 10.4 10.4S21.68 26.4 16 26.4Zm5.776-7.664c-.312-.152-1.856-.92-2.144-1.024-.288-.104-.496-.152-.704.152-.208.304-.808 1.024-.992 1.232-.184.208-.368.232-.68.08-.312-.152-1.32-.488-2.512-1.544-.928-.824-1.552-1.84-1.736-2.152-.184-.312-.02-.48.136-.632.14-.14.312-.368.464-.552.152-.184.2-.312.304-.52.104-.208.056-.392-.024-.552-.08-.152-.704-1.696-.968-2.32-.256-.616-.52-.528-.704-.536-.184-.008-.392-.016-.6-.016-.208 0-.544.08-.832.392-.288.312-1.088 1.064-1.088 2.592 0 1.528 1.112 3.008 1.264 3.216.152.208 2.184 3.344 5.28 4.688 3.096 1.344 3.096.896 3.656.84.56-.056 1.84-.744 2.096-1.464.256-.72.256-1.336.184-1.464-.072-.128-.28-.2-.592-.352Z"/>
</svg>
